<?xml version="1.0" encoding="UTF-8" standalone="no"?>
<svg
   width="732.53271"
   height="220.74715"
   viewBox="0 0 732.53271 220.74715"
   version="1.1"
   xml:space="preserve"
   style="clip-rule:evenodd;fill-rule:evenodd;stroke-linejoin:round;stroke-miterlimit:2"
   id="svg40"
   sodipodi:docname="logo-horizontal.svg"
   inkscape:version="1.2.2 (732a01da63, 2022-12-09)"
   xmlns:inkscape="http://www.inkscape.org/namespaces/inkscape"
   xmlns:sodipodi="http://sodipodi.sourceforge.net/DTD/sodipodi-0.dtd"
   xmlns="http://www.w3.org/2000/svg"
   xmlns:svg="http://www.w3.org/2000/svg"><defs
   id="defs44" /><sodipodi:namedview
   id="namedview42"
   pagecolor="#ffffff"
   bordercolor="#666666"
   borderopacity="1.0"
   inkscape:showpageshadow="2"
   inkscape:pageopacity="0.0"
   inkscape:pagecheckerboard="0"
   inkscape:deskcolor="#d1d1d1"
   showgrid="false"
   inkscape:zoom="0.86166667"
   inkscape:cx="352.80464"
   inkscape:cy="126.49903"
   inkscape:window-width="1366"
   inkscape:window-height="697"
   inkscape:window-x="-8"
   inkscape:window-y="-8"
   inkscape:window-maximized="1"
   inkscape:current-layer="svg40" />
    <g
   transform="matrix(6.47645,0,0,5.85512,-2487.4137,-1324.4277)"
   id="g5">
        <g
   id="Camada1">
            <path
   d="m 464.664,263.664 c 0,0 3.989,-12.099 4.52,-12.365 0.532,-0.266 4.413,-0.916 4.808,-1.75 0.03,-0.063 -4.773,0.892 -6.167,-0.168 -1.206,-0.918 -1.433,-2.337 -1.3,-2.603 0.133,-0.266 -4.52,0.665 -5.584,-0.93 -1.064,-1.596 -1.13,-2.194 -1.13,-3.324 0,-0.067 -3.324,0.532 -4.188,-1.463 -0.864,-1.994 -0.665,-2.925 -0.665,-2.925 0,0 -4.321,-0.465 -4.587,-5.052 1.064,-1.064 21.605,3.789 21.672,3.723 0.066,-0.067 -6.616,-2.651 -5.983,-10.57 0.054,-0.672 8.016,8.015 8.016,8.015 0,0 2.252,-6.27 8.338,-5.545 2.792,0.332 4.454,2.593 5.185,3.39 0.731,0.798 5.527,0.934 9.573,2.992 0.244,0.124 -7.446,-2.385 -9.64,-0.665 -2.368,1.857 -3.257,0.598 -2.991,4.919 0.266,4.321 0.266,9.972 -4.321,12.831 -4.587,2.858 -8.244,3.722 -8.244,3.722 z"
   style="fill:#8000ff"
   id="path2" />
        </g>
    </g>
    <g
   transform="matrix(10.5247,0,0,10.5247,-2872.8537,-2047.7677)"
   id="g38">
        <g
   id="Camada2">
            <g
   id="g35">
                <g
   transform="matrix(12,0,0,12,272.435,215.386)"
   id="g9">
                    <path
   d="m 0.346,0.013 c 0.132,0 0.209,-0.044 0.262,-0.091 V -0.41 H 0.361 v 0.116 h 0.113 v 0.151 C 0.448,-0.122 0.406,-0.104 0.351,-0.104 H 0.342 c -0.123,0 -0.161,-0.09 -0.161,-0.266 v -0.04 c 0,-0.176 0.039,-0.266 0.154,-0.266 h 0.009 c 0.098,0 0.13,0.065 0.13,0.189 h 0.134 v -0.034 c 0,-0.19 -0.093,-0.272 -0.272,-0.272 -0.195,0 -0.292,0.113 -0.292,0.383 v 0.04 c 0,0.27 0.097,0.383 0.302,0.383 z"
   style="fill:#333333;fill-rule:nonzero"
   id="path7" />
                </g>
                <g
   transform="matrix(12,0,0,12,280.403,215.386)"
   id="g13">
                    <rect
   x="0.059999999"
   y="-0.80000001"
   width="0.13"
   height="0.80000001"
   style="fill:#333333;fill-rule:nonzero"
   id="rect11" />
                </g>
                <g
   transform="matrix(12,0,0,12,283.403,215.386)"
   id="g17">
                    <path
   d="m 0.276,0.013 c 0.166,0 0.24,-0.111 0.24,-0.262 v -0.032 c 0,-0.152 -0.074,-0.262 -0.24,-0.262 -0.166,0 -0.24,0.11 -0.24,0.262 v 0.032 c 0,0.151 0.074,0.262 0.24,0.262 z m 0,-0.114 c -0.076,0 -0.11,-0.057 -0.11,-0.148 v -0.032 c 0,-0.092 0.034,-0.149 0.11,-0.149 0.076,0 0.11,0.057 0.11,0.149 v 0.032 c 0,0.091 -0.034,0.148 -0.11,0.148 z"
   style="fill:#333333;fill-rule:nonzero"
   id="path15" />
                </g>
                <g
   transform="matrix(12,0,0,12,289.895,215.386)"
   id="g21">
                    <path
   d="M 0.375,-0.393 0.464,0 H 0.629 L 0.728,-0.53 H 0.6 L 0.543,-0.14 0.453,-0.53 H 0.297 L 0.207,-0.14 0.15,-0.53 H 0.023 L 0.121,0 h 0.165 z"
   style="fill:#333333;fill-rule:nonzero"
   id="path19" />
                </g>
                <g
   transform="matrix(12,0,0,12,298.895,215.386)"
   id="g25">
                    <path
   d="M 0.223,-0.784 0.018,0 h 0.145 l 0.043,-0.178 h 0.22 L 0.469,0 H 0.613 L 0.408,-0.784 Z m 0.093,0.153 0.081,0.336 H 0.234 Z"
   style="fill:#8000ff;fill-rule:nonzero"
   id="path23" />
                </g>
                <g
   transform="matrix(12,0,0,12,306.467,215.386)"
   id="g29">
                    <path
   d="m 0.195,-0.291 h 0.11 c 0.122,0 0.261,-0.036 0.261,-0.235 v -0.02 C 0.566,-0.744 0.427,-0.78 0.305,-0.78 H 0.061 V 0 h 0.134 z m 0,-0.117 V -0.663 H 0.31 c 0.052,0 0.12,0.019 0.12,0.122 v 0.011 c 0,0.103 -0.068,0.122 -0.12,0.122 z"
   style="fill:#8000ff;fill-rule:nonzero"
   id="path27" />
                </g>
                <g
   transform="matrix(12,0,0,12,313.643,215.386)"
   id="g33">
                    <path
   d="m 0.195,-0.291 h 0.11 c 0.122,0 0.261,-0.036 0.261,-0.235 v -0.02 C 0.566,-0.744 0.427,-0.78 0.305,-0.78 H 0.061 V 0 h 0.134 z m 0,-0.117 V -0.663 H 0.31 c 0.052,0 0.12,0.019 0.12,0.122 v 0.011 c 0,0.103 -0.068,0.122 -0.12,0.122 z"
   style="fill:#8000ff;fill-rule:nonzero"
   id="path31" />
                </g>
            </g>
        </g>
    </g>
</svg>
