<?xml version="1.0" encoding="UTF-8" standalone="no"?>
<!DOCTYPE svg PUBLIC "-//W3C//DTD SVG 1.1//EN" "http://www.w3.org/Graphics/SVG/1.1/DTD/svg11.dtd">
<svg width="100%" height="100%" viewBox="0 0 800 600" version="1.1" xmlns="http://www.w3.org/2000/svg" xmlns:xlink="http://www.w3.org/1999/xlink" xml:space="preserve" xmlns:serif="http://www.serif.com/" style="fill-rule:evenodd;clip-rule:evenodd;stroke-linejoin:round;stroke-miterlimit:2;">
    <g transform="matrix(6.47645,0,0,5.85512,-2674.94,-1207.39)">
        <g id="Camada1">
            <path d="M464.664,263.664C464.664,263.664 468.653,251.565 469.184,251.299C469.716,251.033 473.597,250.383 473.992,249.549C474.022,249.486 469.219,250.441 467.825,249.381C466.619,248.463 466.392,247.044 466.525,246.778C466.658,246.512 462.005,247.443 460.941,245.848C459.877,244.252 459.811,243.654 459.811,242.524C459.811,242.457 456.487,243.056 455.623,241.061C454.759,239.067 454.958,238.136 454.958,238.136C454.958,238.136 450.637,237.671 450.371,233.084C451.435,232.02 471.976,236.873 472.043,236.807C472.109,236.74 465.427,234.156 466.06,226.237C466.114,225.565 474.076,234.252 474.076,234.252C474.076,234.252 476.328,227.982 482.414,228.707C485.206,229.039 486.868,231.3 487.599,232.097C488.33,232.895 493.126,233.031 497.172,235.089C497.416,235.213 489.726,232.704 487.532,234.424C485.164,236.281 484.275,235.022 484.541,239.343C484.807,243.664 484.807,249.315 480.22,252.174C475.633,255.032 471.976,255.896 471.976,255.896L464.664,263.664Z" style="fill:rgb(128,0,255);"/>
        </g>
    </g>
    <g transform="matrix(10.5247,0,0,10.5247,-2721.2,-1832.91)">
        <g id="Camada2">
            <g>
                <g transform="matrix(12,0,0,12,272.435,215.386)">
                    <path d="M0.346,0.013C0.478,0.013 0.555,-0.031 0.608,-0.078L0.608,-0.41L0.361,-0.41L0.361,-0.294L0.474,-0.294L0.474,-0.143C0.448,-0.122 0.406,-0.104 0.351,-0.104L0.342,-0.104C0.219,-0.104 0.181,-0.194 0.181,-0.37L0.181,-0.41C0.181,-0.586 0.22,-0.676 0.335,-0.676L0.344,-0.676C0.442,-0.676 0.474,-0.611 0.474,-0.487L0.608,-0.487L0.608,-0.521C0.608,-0.711 0.515,-0.793 0.336,-0.793C0.141,-0.793 0.044,-0.68 0.044,-0.41L0.044,-0.37C0.044,-0.1 0.141,0.013 0.346,0.013Z" style="fill:rgb(51,51,51);fill-rule:nonzero;"/>
                </g>
                <g transform="matrix(12,0,0,12,280.403,215.386)">
                    <rect x="0.06" y="-0.8" width="0.13" height="0.8" style="fill:rgb(51,51,51);fill-rule:nonzero;"/>
                </g>
                <g transform="matrix(12,0,0,12,283.403,215.386)">
                    <path d="M0.276,0.013C0.442,0.013 0.516,-0.098 0.516,-0.249L0.516,-0.281C0.516,-0.433 0.442,-0.543 0.276,-0.543C0.11,-0.543 0.036,-0.433 0.036,-0.281L0.036,-0.249C0.036,-0.098 0.11,0.013 0.276,0.013ZM0.276,-0.101C0.2,-0.101 0.166,-0.158 0.166,-0.249L0.166,-0.281C0.166,-0.373 0.2,-0.43 0.276,-0.43C0.352,-0.43 0.386,-0.373 0.386,-0.281L0.386,-0.249C0.386,-0.158 0.352,-0.101 0.276,-0.101Z" style="fill:rgb(51,51,51);fill-rule:nonzero;"/>
                </g>
                <g transform="matrix(12,0,0,12,289.895,215.386)">
                    <path d="M0.375,-0.393L0.464,-0L0.629,-0L0.728,-0.53L0.6,-0.53L0.543,-0.14L0.453,-0.53L0.297,-0.53L0.207,-0.14L0.15,-0.53L0.023,-0.53L0.121,-0L0.286,-0L0.375,-0.393Z" style="fill:rgb(51,51,51);fill-rule:nonzero;"/>
                </g>
                <g transform="matrix(12,0,0,12,298.895,215.386)">
                    <path d="M0.223,-0.784L0.018,-0L0.163,-0L0.206,-0.178L0.426,-0.178L0.469,-0L0.613,-0L0.408,-0.784L0.223,-0.784ZM0.316,-0.631L0.397,-0.295L0.234,-0.295L0.316,-0.631Z" style="fill:rgb(128,0,255);fill-rule:nonzero;"/>
                </g>
                <g transform="matrix(12,0,0,12,306.467,215.386)">
                    <path d="M0.195,-0.291L0.305,-0.291C0.427,-0.291 0.566,-0.327 0.566,-0.526L0.566,-0.546C0.566,-0.744 0.427,-0.78 0.305,-0.78L0.061,-0.78L0.061,-0L0.195,-0L0.195,-0.291ZM0.195,-0.408L0.195,-0.663L0.31,-0.663C0.362,-0.663 0.43,-0.644 0.43,-0.541L0.43,-0.53C0.43,-0.427 0.362,-0.408 0.31,-0.408L0.195,-0.408Z" style="fill:rgb(128,0,255);fill-rule:nonzero;"/>
                </g>
                <g transform="matrix(12,0,0,12,313.643,215.386)">
                    <path d="M0.195,-0.291L0.305,-0.291C0.427,-0.291 0.566,-0.327 0.566,-0.526L0.566,-0.546C0.566,-0.744 0.427,-0.78 0.305,-0.78L0.061,-0.78L0.061,-0L0.195,-0L0.195,-0.291ZM0.195,-0.408L0.195,-0.663L0.31,-0.663C0.362,-0.663 0.43,-0.644 0.43,-0.541L0.43,-0.53C0.43,-0.427 0.362,-0.408 0.31,-0.408L0.195,-0.408Z" style="fill:rgb(128,0,255);fill-rule:nonzero;"/>
                </g>
            </g>
        </g>
    </g>
</svg>
